<svg xmlns="http://www.w3.org/2000/svg" viewBox="0 0 219.2 217.33"><defs><style>.cls-1{fill:#fff}</style></defs><g id="Layer_2" data-name="Layer 2"><g id="Layer_1-2" data-name="Layer 1"><path d="M219.2 148.17v-13.65c-2.81-7.22-4.71-15-8.62-21.57-10.83-18.2-28-27.9-48.12-33.1-1.89-.49-3.74-1.12-5.74-1.72a22.67 22.67 0 01.19-3.39c4-17.61-.88-33-12.07-46.64-30.39-37-99.1-37.56-130.31-1.18-20.1 23.43-19.29 52.88 2 75.27 1.18 1.23 2.17 2.65 3.24 4l-14 34 43.49-17.55 12.94 3.2a32.75 32.75 0 01-.29 3.76c-4.15 19.44 1.86 35.84 15.24 49.95 10.58 11.17 23.7 18 38.5 21.79a98.63 98.63 0 0053.73-1.39L213 217.33c-5.2-12.63-9.6-23.33-14.18-34.48 11.1-9.24 16.36-21.61 20.38-34.68zM49 113.33c-7.45 2.84-15.8 6-25.67 9.78 2.88-7.3 5.14-13 8-20.22A76.85 76.85 0 0124 97C5 77.74 4.6 51.79 22.79 31.85 52.08-.24 114.65 2.56 140.43 37.24c8.79 11.82 11.81 24.81 7.26 39.67C113.84 76.4 85 86 65.92 116.89zm147.24 87.2l-26.43-9.94c-28.12 8.54-54.15 7.07-77.69-10-29.23-21.21-28.83-57.77.41-79.11 29.5-21.53 75.91-19.22 101.35 5.06 21.18 20.2 21.55 47.64 1 68.36-2 2-3.6 4.22-6.07 7.16 1.95 4.86 4.35 10.82 7.42 18.47z"/><path class="cls-1" d="M188.8 182c2 4.88 4.36 10.84 7.43 18.49l-26.43-9.94c-28.12 8.54-54.15 7.07-77.69-10-29.23-21.21-28.83-57.77.41-79.11 29.5-21.53 75.91-19.22 101.35 5.06 21.18 20.2 21.55 47.64 1 68.36-1.95 1.98-3.6 4.24-6.07 7.14z"/><path class="cls-1" d="M147.69 76.91C113.84 76.4 85 86 65.92 116.89L49 113.33c-7.45 2.84-15.8 6-25.67 9.78 2.88-7.3 5.14-13 8-20.22A76.85 76.85 0 0124 97C5 77.74 4.6 51.79 22.79 31.85 52.08-.24 114.65 2.56 140.43 37.24c8.79 11.82 11.81 24.81 7.26 39.67z"/></g></g></svg>